<svg width="32" height="32" viewBox="0 0 32 32" fill="none" xmlns="http://www.w3.org/2000/svg">
<path d="M14.2312 0.73125C15.2062 -0.24375 16.7875 -0.24375 17.7687 0.73125L22.4 5.3625C23.1812 6.14375 23.1812 7.4125 22.4 8.19375L17.4188 13.175C16.6375 13.9563 15.3687 13.9563 14.5875 13.175L9.60625 8.1875C8.825 7.40625 8.825 6.1375 9.60625 5.35625L14.2375 0.725L14.2312 0.73125ZM8.1875 9.60625L13.1687 14.5875C13.95 15.3687 13.95 16.6375 13.1687 17.4188L8.1875 22.3937C7.40625 23.175 6.1375 23.175 5.35625 22.3937L0.73125 17.7687C-0.24375 16.7937 -0.24375 15.2125 0.73125 14.2312L5.3625 9.6C6.14375 8.81875 7.4125 8.81875 8.19375 9.6L8.1875 9.60625ZM9.60625 23.8125L14.5875 18.8312C15.3687 18.05 16.6375 18.05 17.4188 18.8312L22.3937 23.8125C23.175 24.5938 23.175 25.8625 22.3937 26.6437L17.7625 31.275C16.7875 32.25 15.2063 32.25 14.225 31.275L9.59375 26.6437C8.8125 25.8625 8.8125 24.5938 9.59375 23.8125H9.60625ZM23.8125 22.3937L18.8312 17.4125C18.05 16.6313 18.05 15.3625 18.8312 14.5813L23.8125 9.60625C24.5938 8.825 25.8625 8.825 26.6437 9.60625L31.275 14.2375C32.25 15.2125 32.25 16.7937 31.275 17.775L26.6437 22.4062C25.8625 23.1875 24.5938 23.1875 23.8125 22.4062V22.3937Z" fill="#754FF6"/>
</svg>
