<svg width="34" height="32" viewBox="0 0 34 32" fill="none" xmlns="http://www.w3.org/2000/svg">
<path d="M33.2268 6.4875L29.6456 0.81875C29.3268 0.3125 28.7581 0 28.1518 0H5.85181C5.24556 0 4.67681 0.3125 4.35806 0.81875L0.770565 6.4875C-1.07944 9.4125 0.558065 13.4812 4.01431 13.95C4.26431 13.9812 4.52057 14 4.77057 14C6.40182 14 7.85181 13.2875 8.84556 12.1875C9.83931 13.2875 11.2893 14 12.9206 14C14.5518 14 16.0018 13.2875 16.9956 12.1875C17.9893 13.2875 19.4393 14 21.0706 14C22.7081 14 24.1518 13.2875 25.1456 12.1875C26.1456 13.2875 27.5893 14 29.2206 14C29.4768 14 29.7268 13.9812 29.9768 13.95C33.4456 13.4875 35.0893 9.41875 33.2331 6.4875H33.2268ZM30.2331 15.9312C30.2331 15.9312 30.2331 15.9312 30.2268 15.9312C29.8956 15.975 29.5581 16 29.2143 16C28.4393 16 27.6956 15.8812 27.0018 15.6687V24H7.00181V15.6625C6.30181 15.8813 5.55181 16 4.77681 16C4.43306 16 4.08931 15.975 3.75806 15.9312H3.75182C3.49557 15.8937 3.24557 15.85 3.00182 15.7875V24V28C3.00182 30.2062 4.79556 32 7.00181 32H27.0018C29.2081 32 31.0018 30.2062 31.0018 28V24V15.7875C30.7518 15.85 30.5018 15.9 30.2331 15.9312Z" fill="#754FF6"/>
</svg>
